<mxfile host="app.diagrams.net" modified="2023-08-17T05:15:15.941Z" agent="Mozilla/5.0 (Windows NT 10.0; Win64; x64) AppleWebKit/537.36 (KHTML, like Gecko) Chrome/115.0.0.0 Safari/537.36" etag="yz9o4m676omkqaJ4sIGv" version="21.6.8" type="device">
  <diagram id="AKxhRn22PxZ3lgNaROqE" name="第 1 页">
    <mxGraphModel dx="1393" dy="540" grid="1" gridSize="10" guides="1" tooltips="1" connect="1" arrows="1" fold="1" page="0" pageScale="1" pageWidth="827" pageHeight="1169" background="none" math="0" shadow="0">
      <root>
        <mxCell id="0" />
        <mxCell id="1" parent="0" />
        <mxCell id="node6" value="&lt;p style=&quot;margin:0px;margin-top:4px;text-align:center;&quot;&gt;&lt;b&gt;Commons.DatabaseLayer.AbstractProperty&lt;/b&gt;&lt;/p&gt;&lt;hr size=&quot;1&quot;/&gt;&lt;p style=&quot;margin:0 0 0 4px;line-height:1.6;&quot;&gt; __init__(self): &lt;/p&gt;" style="verticalAlign=top;align=left;overflow=fill;fontSize=14;fontFamily=Helvetica;html=1;rounded=0;shadow=0;comic=0;labelBackgroundColor=none;strokeWidth=1;" parent="1" vertex="1">
          <mxGeometry x="1904" y="392" width="334" height="58" as="geometry" />
        </mxCell>
        <mxCell id="node8" value="&lt;p style=&quot;margin:0px;margin-top:4px;text-align:center;&quot;&gt;&lt;b&gt;Commons.DatabaseLayer.BasicPropertyTransformer&lt;/b&gt;&lt;/p&gt;&lt;hr size=&quot;1&quot;/&gt;&lt;p style=&quot;margin:0 0 0 4px;line-height:1.6;&quot;&gt; transform(self, property: AbstractProperty): &lt;br/&gt; deTransform(self, obj: object): &lt;/p&gt;" style="verticalAlign=top;align=left;overflow=fill;fontSize=14;fontFamily=Helvetica;html=1;rounded=0;shadow=0;comic=0;labelBackgroundColor=none;strokeWidth=1;" parent="1" vertex="1">
          <mxGeometry x="-239" y="745" width="397" height="83" as="geometry" />
        </mxCell>
        <mxCell id="node3" value="&lt;p style=&quot;margin:0px;margin-top:4px;text-align:center;&quot;&gt;&lt;b&gt;Commons.DatabaseLayer.DatabaseTransformer&lt;/b&gt;&lt;/p&gt;&lt;hr size=&quot;1&quot;/&gt;&lt;p style=&quot;margin:0 0 0 4px;line-height:1.6;&quot;&gt; queryMethods: &lt;/p&gt;&lt;hr size=&quot;1&quot;/&gt;&lt;p style=&quot;margin:0 0 0 4px;line-height:1.6;&quot;&gt; __init__(self, queryMethods: BasicManipulateMethods): &lt;br/&gt; read(self, offset: int = 0, limit: int = 1e7): &lt;br/&gt; transform(self, baseUnit: Base): &lt;/p&gt;" style="verticalAlign=top;align=left;overflow=fill;fontSize=14;fontFamily=Helvetica;html=1;rounded=0;shadow=0;comic=0;labelBackgroundColor=none;strokeWidth=1;" parent="1" vertex="1">
          <mxGeometry x="1073" y="357" width="367" height="134" as="geometry" />
        </mxCell>
        <mxCell id="node10" value="&lt;p style=&quot;margin:0px;margin-top:4px;text-align:center;&quot;&gt;&lt;b&gt;Commons.DatabaseLayer.PwRepFrequencyTransformer&lt;/b&gt;&lt;/p&gt;&lt;hr size=&quot;1&quot;/&gt;&lt;p style=&quot;margin:0 0 0 4px;line-height:1.6;&quot;&gt; queryMethods: &lt;/p&gt;&lt;hr size=&quot;1&quot;/&gt;&lt;p style=&quot;margin:0 0 0 4px;line-height:1.6;&quot;&gt; __init__(self, queryMethods: BasicManipulateMethods): &lt;br/&gt; getInstance(cls): &lt;br/&gt; transform(self, baseUnit: PwRepresentationFrequency): &lt;br/&gt; transformToRepUnit(self, baseUnit: PwRepresentationFrequency): &lt;br/&gt; getRepresentation(self, unit: RepUnit): &lt;br/&gt; read(self, offset: int = 0, limit: int = 1e7): &lt;br/&gt; QueryWithPwToRepUnit(self, pwStr: str): &lt;br/&gt; QueryWithPw(self, pwStr: str): &lt;/p&gt;" style="verticalAlign=top;align=left;overflow=fill;fontSize=14;fontFamily=Helvetica;html=1;rounded=0;shadow=0;comic=0;labelBackgroundColor=none;strokeWidth=1;" parent="1" vertex="1">
          <mxGeometry x="1046" y="664" width="422" height="256" as="geometry" />
        </mxCell>
        <mxCell id="node4" value="&lt;p style=&quot;margin:0px;margin-top:4px;text-align:center;&quot;&gt;&lt;b&gt;Commons.DatabaseLayer.PwRepFrequencyUnit&lt;/b&gt;&lt;/p&gt;&lt;hr size=&quot;1&quot;/&gt;&lt;p style=&quot;margin:0 0 0 4px;line-height:1.6;&quot;&gt; repHash: &lt;br/&gt; pwStr: &lt;br/&gt; frequency: &lt;/p&gt;&lt;hr size=&quot;1&quot;/&gt;&lt;p style=&quot;margin:0 0 0 4px;line-height:1.6;&quot;&gt; __init__(self, pwStr: str, repStructureStr: str, repStructureHash: str, frequency: int): &lt;/p&gt;" style="verticalAlign=top;align=left;overflow=fill;fontSize=14;fontFamily=Helvetica;html=1;rounded=0;shadow=0;comic=0;labelBackgroundColor=none;strokeWidth=1;" parent="1" vertex="1">
          <mxGeometry x="1706" y="1068" width="366" height="134" as="geometry" />
        </mxCell>
        <mxCell id="node11" value="&lt;p style=&quot;margin:0px;margin-top:4px;text-align:center;&quot;&gt;&lt;b&gt;Commons.DatabaseLayer.PwRepUniqueTransformer&lt;/b&gt;&lt;/p&gt;&lt;hr size=&quot;1&quot;/&gt;&lt;p style=&quot;margin:0 0 0 4px;line-height:1.6;&quot;&gt; queryMethods: &lt;/p&gt;&lt;hr size=&quot;1&quot;/&gt;&lt;p style=&quot;margin:0 0 0 4px;line-height:1.6;&quot;&gt; __init__(self, queryMethods: BasicManipulateMethods): &lt;br/&gt; getInstance(cls): &lt;br/&gt; transform(self, baseUnit: PwRepUnique): &lt;br/&gt; transformIntermediateToDatabaseUnit(self, unit: PwRepUniqueUnit): &lt;br/&gt; transformDatabaseunitToParseunit(self, unit: PwRepUnique): &lt;br/&gt; transformParseunitToDatabaseunit(self, unit: PwRepAndStructureUnit): &lt;br/&gt; InsertPwRepAndStructureUnit(self, unit: PwRepAndStructureUnit): &lt;br/&gt; getParseunitWithPw(self, pwStr: str): &lt;br/&gt; getParseunitWithId(self, id: int): &lt;br/&gt; getRepresentation(cls, pwRep: PwRepUnique): &lt;br/&gt; getRepresentationStructure(cls, pwRep: PwRepUnique): &lt;br/&gt; read(self, offset: int = 0, limit: int = 1e7): &lt;br/&gt; readAsParseUnit(self, offset: int = 0, limit: int = 1e7): &lt;br/&gt; Insert(self, unit: PwRepUniqueUnit): &lt;br/&gt; SmartInsert(self, unit: PwRepUniqueUnit): &lt;/p&gt;" style="verticalAlign=top;align=left;overflow=fill;fontSize=14;fontFamily=Helvetica;html=1;rounded=0;shadow=0;comic=0;labelBackgroundColor=none;strokeWidth=1;" parent="1" vertex="1">
          <mxGeometry x="625" y="583" width="400" height="417" as="geometry" />
        </mxCell>
        <mxCell id="node12" value="&lt;p style=&quot;margin:0px;margin-top:4px;text-align:center;&quot;&gt;&lt;b&gt;Commons.DatabaseLayer.PwRepUniqueUnit&lt;/b&gt;&lt;/p&gt;&lt;hr size=&quot;1&quot;/&gt;&lt;p style=&quot;margin:0 0 0 4px;line-height:1.6;&quot;&gt; repStructureHash: &lt;br/&gt; repHash: &lt;br/&gt; repStructureStr: &lt;br/&gt; pwStr: &lt;br/&gt; repStr: &lt;/p&gt;&lt;hr size=&quot;1&quot;/&gt;&lt;p style=&quot;margin:0 0 0 4px;line-height:1.6;&quot;&gt; __init__(self, pwStr: str, repStr: str, repStructureStr: str, repHash: str, repStructureHash: str, ): &lt;br/&gt; create(cls, pwStr: str, repStr: str, repStructureStr: str, repHash: str, repStructureHash: str): &lt;/p&gt;" style="verticalAlign=top;align=left;overflow=fill;fontSize=14;fontFamily=Helvetica;html=1;rounded=0;shadow=0;comic=0;labelBackgroundColor=none;strokeWidth=1;" parent="1" vertex="1">
          <mxGeometry x="1331" y="1170" width="344" height="210" as="geometry" />
        </mxCell>
        <mxCell id="node2" value="&lt;p style=&quot;margin:0px;margin-top:4px;text-align:center;&quot;&gt;&lt;b&gt;Commons.DatabaseLayer.PwRepUnit&lt;/b&gt;&lt;/p&gt;&lt;hr size=&quot;1&quot;/&gt;&lt;p style=&quot;margin:0 0 0 4px;line-height:1.6;&quot;&gt; repStructure: &lt;br/&gt; repStructureHash: &lt;br/&gt; repHash: &lt;br/&gt; pwStr: &lt;br/&gt; rep: &lt;/p&gt;&lt;hr size=&quot;1&quot;/&gt;&lt;p style=&quot;margin:0 0 0 4px;line-height:1.6;&quot;&gt; __init__(self, pwStr: str, rep: PIIRepresentation, repStructure: PIIRepresentation, repStr: str, repHash: str,                  repStructureHash: str): &lt;/p&gt;" style="verticalAlign=top;align=left;overflow=fill;fontSize=14;fontFamily=Helvetica;html=1;rounded=0;shadow=0;comic=0;labelBackgroundColor=none;strokeWidth=1;" parent="1" vertex="1">
          <mxGeometry x="2092" y="1045" width="321" height="185" as="geometry" />
        </mxCell>
        <mxCell id="node9" value="&lt;p style=&quot;margin:0px;margin-top:4px;text-align:center;&quot;&gt;&lt;b&gt;Commons.DatabaseLayer.PwRepresentationTransformer&lt;/b&gt;&lt;/p&gt;&lt;hr size=&quot;1&quot;/&gt;&lt;p style=&quot;margin:0 0 0 4px;line-height:1.6;&quot;&gt; queryMethods: &lt;/p&gt;&lt;hr size=&quot;1&quot;/&gt;&lt;p style=&quot;margin:0 0 0 4px;line-height:1.6;&quot;&gt; __init__(self, queryMethods: BasicManipulateMethods): &lt;br/&gt; getInstance(cls): &lt;br/&gt; transform(self, baseUnit: PwRepresentation): &lt;br/&gt; getPwRepresentation(cls, pwStr: str, rep: PIIRepresentation): &lt;br/&gt; getRepresentation(cls, pwRep: PwRepresentation): &lt;br/&gt; read(self, offset: int = 0, limit: int = 1e7): &lt;br/&gt; Insert(self, pr: PwRepresentation): &lt;br/&gt; SmartInsert(self, pr: PwRepresentation): &lt;br/&gt; getAllPw(self, offset: int = 0, limit: int = 1e6): &lt;br/&gt; getStructureSample(self, hashStr: str): &lt;br/&gt; getDatabaseUnitWithRepStructureHash(self, pwStr: str, repStructureHash: str): &lt;/p&gt;" style="verticalAlign=top;align=left;overflow=fill;fontSize=14;fontFamily=Helvetica;html=1;rounded=0;shadow=0;comic=0;labelBackgroundColor=none;strokeWidth=1;" parent="1" vertex="1">
          <mxGeometry x="177" y="629" width="428" height="321" as="geometry" />
        </mxCell>
        <mxCell id="node13" value="&lt;p style=&quot;margin:0px;margin-top:4px;text-align:center;&quot;&gt;&lt;b&gt;Commons.DatabaseLayer.RepFrequencyTransformer&lt;/b&gt;&lt;/p&gt;&lt;hr size=&quot;1&quot;/&gt;&lt;p style=&quot;margin:0 0 0 4px;line-height:1.6;&quot;&gt; queryMethods: &lt;/p&gt;&lt;hr size=&quot;1&quot;/&gt;&lt;p style=&quot;margin:0 0 0 4px;line-height:1.6;&quot;&gt; __init__(self, queryMethods: BasicManipulateMethods): &lt;br/&gt; getInstance(cls): &lt;br/&gt; transform(self, baseUnit: RepresentationFrequency): &lt;br/&gt; transformToRepUnit(self, baseUnit: RepresentationFrequency): &lt;br/&gt; read(self, offset: int = 0, limit: int = 1e7): &lt;br/&gt; readWithRepUnit(self, offset: int = 0, limit: int = 1e7): &lt;/p&gt;" style="verticalAlign=top;align=left;overflow=fill;fontSize=14;fontFamily=Helvetica;html=1;rounded=0;shadow=0;comic=0;labelBackgroundColor=none;strokeWidth=1;" parent="1" vertex="1">
          <mxGeometry x="1488" y="664" width="402" height="206" as="geometry" />
        </mxCell>
        <mxCell id="node5" value="&lt;p style=&quot;margin:0px;margin-top:4px;text-align:center;&quot;&gt;&lt;b&gt;Commons.DatabaseLayer.RepFrequencyUnit&lt;/b&gt;&lt;/p&gt;&lt;hr size=&quot;1&quot;/&gt;&lt;p style=&quot;margin:0 0 0 4px;line-height:1.6;&quot;&gt; repHash: &lt;br/&gt; frequency: &lt;/p&gt;&lt;hr size=&quot;1&quot;/&gt;&lt;p style=&quot;margin:0 0 0 4px;line-height:1.6;&quot;&gt; __init__(self, repStr: str, repHash: str, frequency: int): &lt;br/&gt; __str__(self): &lt;/p&gt;" style="verticalAlign=top;align=left;overflow=fill;fontSize=14;fontFamily=Helvetica;html=1;rounded=0;shadow=0;comic=0;labelBackgroundColor=none;strokeWidth=1;" parent="1" vertex="1">
          <mxGeometry x="2433" y="1068" width="346" height="142" as="geometry" />
        </mxCell>
        <mxCell id="node0" value="&lt;p style=&quot;margin:0px;margin-top:4px;text-align:center;&quot;&gt;&lt;b&gt;Commons.DatabaseLayer.RepStrProperty&lt;/b&gt;&lt;/p&gt;&lt;hr size=&quot;1&quot;/&gt;&lt;p style=&quot;margin:0 0 0 4px;line-height:1.6;&quot;&gt; repStr: &lt;/p&gt;&lt;hr size=&quot;1&quot;/&gt;&lt;p style=&quot;margin:0 0 0 4px;line-height:1.6;&quot;&gt; __init__(self, repStr: str): &lt;/p&gt;" style="verticalAlign=top;align=left;overflow=fill;fontSize=14;fontFamily=Helvetica;html=1;rounded=0;shadow=0;comic=0;labelBackgroundColor=none;strokeWidth=1;" parent="1" vertex="1">
          <mxGeometry x="1910" y="744" width="322" height="106" as="geometry" />
        </mxCell>
        <mxCell id="node1" value="&lt;p style=&quot;margin:0px;margin-top:4px;text-align:center;&quot;&gt;&lt;b&gt;Commons.DatabaseLayer.RepStrPropertyTransformer&lt;/b&gt;&lt;/p&gt;&lt;hr size=&quot;1&quot;/&gt;&lt;p style=&quot;margin:0 0 0 4px;line-height:1.6;&quot;&gt; transform(self, property: RepStrProperty): &lt;br/&gt; deTransform(self, rep: PIIRepresentation): &lt;/p&gt;" style="verticalAlign=top;align=left;overflow=fill;fontSize=14;fontFamily=Helvetica;html=1;rounded=0;shadow=0;comic=0;labelBackgroundColor=none;strokeWidth=1;" parent="1" vertex="1">
          <mxGeometry x="-245" y="1091" width="408" height="83" as="geometry" />
        </mxCell>
        <mxCell id="node7" value="&lt;p style=&quot;margin:0px;margin-top:4px;text-align:center;&quot;&gt;&lt;b&gt;Commons.Modes.Singleton&lt;/b&gt;&lt;/p&gt;&lt;hr size=&quot;1&quot;/&gt;&lt;p style=&quot;margin:0 0 0 4px;line-height:1.6;&quot;&gt; _instances: &lt;br/&gt; _instances: &lt;/p&gt;&lt;hr size=&quot;1&quot;/&gt;&lt;p style=&quot;margin:0 0 0 4px;line-height:1.6;&quot;&gt; getInstance(cls,*args,**kwargs): &lt;/p&gt;" style="verticalAlign=top;align=left;overflow=fill;fontSize=14;fontFamily=Helvetica;html=1;rounded=0;shadow=0;comic=0;labelBackgroundColor=none;strokeWidth=1;" parent="1" vertex="1">
          <mxGeometry x="710" y="369" width="231" height="121" as="geometry" />
        </mxCell>
        <mxCell id="node14" value="&lt;p style=&quot;margin:0px;margin-top:4px;text-align:center;&quot;&gt;&lt;b&gt;abc.ABCMeta&lt;/b&gt;&lt;/p&gt;&lt;hr size=&quot;1&quot;/&gt;&lt;p style=&quot;margin:0 0 0 4px;line-height:1.6;&quot;&gt; cls: &lt;/p&gt;&lt;hr size=&quot;1&quot;/&gt;&lt;p style=&quot;margin:0 0 0 4px;line-height:1.6;&quot;&gt; __new__(mcls, name, bases, namespace, /, **kwargs): &lt;br/&gt; register(cls, subclass): &lt;br/&gt; __instancecheck__(cls, instance): &lt;br/&gt; __subclasscheck__(cls, subclass): &lt;br/&gt; _dump_registry(cls, file=None): &lt;br/&gt; _abc_registry_clear(cls): &lt;br/&gt; _abc_caches_clear(cls): &lt;/p&gt;" style="verticalAlign=top;align=left;overflow=fill;fontSize=14;fontFamily=Helvetica;html=1;rounded=0;shadow=0;comic=0;labelBackgroundColor=none;strokeWidth=1;" parent="1" vertex="1">
          <mxGeometry x="876" y="89" width="330" height="231" as="geometry" />
        </mxCell>
        <mxCell id="Eu-Cr3zKRskkO08Yod6i-1" style="edgeStyle=orthogonalEdgeStyle;rounded=0;orthogonalLoop=1;jettySize=auto;html=1;entryX=0.5;entryY=1;entryDx=0;entryDy=0;dashed=1;endArrow=none;endFill=0;strokeColor=#999999;" parent="1" source="node15" target="node9" edge="1">
          <mxGeometry relative="1" as="geometry" />
        </mxCell>
        <mxCell id="node15" value="&lt;p&gt;Transformer for &lt;cite&gt;pwrepresentation&lt;/cite&gt; datatable Transformation: PwRepresentation(database unit) =&amp;gt; PwRepUnit(intermediate unit) =&amp;gt; PIIRepresentation(parse unit)&lt;/p&gt; &lt;h1 class=&quot;heading&quot;&gt;Examples&lt;/h1&gt; &lt;p&gt;# get deserialized unit with PIIRepresentation object transformer = PwRepresentationTransformer.getInstance() units: list[PwRepUnit] = transformer.read()&lt;/p&gt; &lt;p&gt;# build database, transform PIIRepresentation into database unit pr = PwRepresentationTransformer.getPwRepresentation(pwStr=unit.pwStr, rep=rep) transformer.insert(pr)&lt;/p&gt; " style="shape=note;size=20;whiteSpace=wrap;html=1;verticalAlign=top;align=left;" parent="1" vertex="1">
          <mxGeometry x="195" y="998" width="393" height="233" as="geometry" />
        </mxCell>
        <mxCell id="node16" value="&lt;p&gt;Transformer for &lt;cite&gt;pwrepresentation_unique&lt;/cite&gt; datatable Transformation: PwRepUnique(database unit) =&amp;gt; PwRepUniqueUnit(intermediate unit) =&amp;gt; PwRepAndStructureUnit(parse unit)&lt;/p&gt; &lt;h1 class=&quot;heading&quot;&gt;Examples&lt;/h1&gt; &lt;p&gt;# get deserialized unit with PIIRepresentation object transformer = PwRepUniqueTransformer.getInstance() units: list[PwRepUnit] = transformer.read()&lt;/p&gt; &lt;p&gt;# build database, transform PIIRepresentation into database unit pr = PwRepUniqueTransformer.getPwRepresentation(pwStr=unit.pwStr, rep=rep) transformer.insert(pr)&lt;/p&gt; " style="shape=note;size=20;whiteSpace=wrap;html=1;verticalAlign=top;align=left;" parent="1" vertex="1">
          <mxGeometry x="628" y="1045" width="394" height="250" as="geometry" />
        </mxCell>
        <mxCell id="node17" value="&lt;p&gt;Transformer for &lt;cite&gt;pwrepresentation_frequency&lt;/cite&gt; dataview Transformation: PwRepresentationFrequency(base unit) =&amp;gt; RepFrequencyUnit(intermediate unit) =&amp;gt; RepUnit(parse unit)&lt;/p&gt; &lt;h1 class=&quot;heading&quot;&gt;Examples&lt;/h1&gt; &lt;p&gt;transformer = PwRepFrequencyTransformer.getInstance() units: list[PwRepFrequencyUnit] = transformer.read()&lt;/p&gt; " style="shape=note;size=20;whiteSpace=wrap;html=1;verticalAlign=top;align=left;" parent="1" vertex="1">
          <mxGeometry x="1086" y="950" width="342" height="190" as="geometry" />
        </mxCell>
        <mxCell id="node18" value="&lt;p&gt;Transformer for &lt;cite&gt;representation_frequency&lt;/cite&gt; dataview Transformation: RepresentationFrequency(base unit) =&amp;gt; RepFrequencyUnit(intermediate unit) =&amp;gt; RepUnit(parse unit)&lt;/p&gt; &lt;h1 class=&quot;heading&quot;&gt;Examples&lt;/h1&gt; &lt;p&gt;transformer = RepFrequencyTransformer.getInstance() units: list[RepFrequencyUnit] = transformer.read()&lt;/p&gt; " style="shape=note;size=20;whiteSpace=wrap;html=1;verticalAlign=top;align=left;" parent="1" vertex="1">
          <mxGeometry x="1520" y="885" width="340" height="173" as="geometry" />
        </mxCell>
        <mxCell id="node19" value="&lt;p&gt;Used for intermediate databases&lt;/p&gt; &lt;p&gt;Facade api to read from database or manipulate database. Transform database unit into types directly employed in algorithms.&lt;/p&gt; &lt;h1 class=&quot;heading&quot;&gt;Notes&lt;/h1&gt; &lt;ul class=&quot;rst-simple&quot;&gt; &lt;li&gt;DatabaseTransformers are exclusive for intermediate databases.&lt;/li&gt; &lt;li&gt;If you want to work with primitive database, consider &lt;cite&gt;Preprocessor`s in `Parser&lt;/cite&gt; package.&lt;/li&gt; &lt;/ul&gt; " style="shape=note;size=20;whiteSpace=wrap;html=1;verticalAlign=top;align=left;" parent="1" vertex="1">
          <mxGeometry x="1422" y="56" width="350" height="239" as="geometry" />
        </mxCell>
        <mxCell id="node20" value="&lt;p&gt;Transform an abstract property into certain type, vice verse. Singleton.&lt;/p&gt; " style="shape=note;size=20;whiteSpace=wrap;html=1;verticalAlign=top;align=left;" parent="1" vertex="1">
          <mxGeometry x="-202" y="613" width="322" height="112" as="geometry" />
        </mxCell>
        <mxCell id="node21" value="&lt;p&gt;A abstract class which only contains &#39;repStr&#39; property, namely representation serialized string&lt;/p&gt; " style="shape=note;size=20;whiteSpace=wrap;html=1;verticalAlign=top;align=left;" parent="1" vertex="1">
          <mxGeometry x="2102" y="612" width="322" height="112" as="geometry" />
        </mxCell>
        <mxCell id="edge11" value="" style="html=1;rounded=1;edgeStyle=orthogonalEdgeStyle;dashed=1;startArrow=classic;startSize=12;endArrow=none;strokeColor=#595959;exitX=0.500;exitY=0.001;exitDx=0;exitDy=0;entryX=0.500;entryY=1.000;entryDx=0;entryDy=0;" parent="1" source="node6" target="node14" edge="1">
          <mxGeometry width="50" height="50" relative="1" as="geometry">
            <Array as="points">
              <mxPoint x="2071" y="331" />
              <mxPoint x="1041" y="331" />
            </Array>
          </mxGeometry>
        </mxCell>
        <mxCell id="label70" value="isinstanceof" style="edgeLabel;resizable=0;html=1;align=left;verticalAlign=top;strokeColor=default;" parent="edge11" vertex="1" connectable="0">
          <mxGeometry x="1211" y="311" as="geometry" />
        </mxCell>
        <mxCell id="edge24" value="" style="html=1;rounded=1;edgeStyle=orthogonalEdgeStyle;dashed=1;startArrow=none;endArrow=none;strokeColor=#595959;exitX=0.500;exitY=0.000;exitDx=0;exitDy=0;entryX=0.500;entryY=1.000;entryDx=0;entryDy=0;" parent="1" source="node8" target="node20" edge="1">
          <mxGeometry width="50" height="50" relative="1" as="geometry">
            <Array as="points" />
          </mxGeometry>
        </mxCell>
        <mxCell id="edge13" value="" style="html=1;rounded=1;edgeStyle=orthogonalEdgeStyle;dashed=0;startArrow=block;startSize=12;endArrow=none;strokeColor=#595959;exitX=0.750;exitY=0.000;exitDx=0;exitDy=0;entryX=0.500;entryY=1.000;entryDx=0;entryDy=0;" parent="1" source="node8" target="node7" edge="1">
          <mxGeometry width="50" height="50" relative="1" as="geometry">
            <Array as="points">
              <mxPoint x="58" y="532" />
              <mxPoint x="826" y="532" />
            </Array>
          </mxGeometry>
        </mxCell>
        <mxCell id="edge2" value="" style="html=1;rounded=1;edgeStyle=orthogonalEdgeStyle;dashed=1;startArrow=classic;startSize=12;endArrow=none;strokeColor=#595959;exitX=0.250;exitY=0.001;exitDx=0;exitDy=0;entryX=0.500;entryY=1.000;entryDx=0;entryDy=0;" parent="1" source="node8" target="node14" edge="1">
          <mxGeometry width="50" height="50" relative="1" as="geometry">
            <Array as="points">
              <mxPoint x="-140" y="562" />
              <mxPoint x="-48" y="562" />
              <mxPoint x="-48" y="331" />
              <mxPoint x="1041" y="331" />
            </Array>
          </mxGeometry>
        </mxCell>
        <mxCell id="label16" value="isinstanceof" style="edgeLabel;resizable=0;html=1;align=left;verticalAlign=top;strokeColor=default;" parent="edge2" vertex="1" connectable="0">
          <mxGeometry x="930" y="310" as="geometry" />
        </mxCell>
        <mxCell id="edge23" value="" style="html=1;rounded=1;edgeStyle=orthogonalEdgeStyle;dashed=1;startArrow=none;endArrow=none;strokeColor=#595959;exitX=0.500;exitY=0.000;exitDx=0;exitDy=0;entryX=0.500;entryY=1.000;entryDx=0;entryDy=0;" parent="1" source="node3" target="node19" edge="1">
          <mxGeometry width="50" height="50" relative="1" as="geometry">
            <Array as="points">
              <mxPoint x="1257" y="318" />
              <mxPoint x="1597" y="318" />
            </Array>
          </mxGeometry>
        </mxCell>
        <mxCell id="edge4" value="" style="html=1;rounded=1;edgeStyle=orthogonalEdgeStyle;dashed=1;startArrow=classic;startSize=12;endArrow=none;strokeColor=#595959;exitX=0.500;exitY=0.000;exitDx=0;exitDy=0;entryX=0.500;entryY=1.000;entryDx=0;entryDy=0;" parent="1" source="node3" target="node14" edge="1">
          <mxGeometry width="50" height="50" relative="1" as="geometry">
            <Array as="points">
              <mxPoint x="1257" y="331" />
              <mxPoint x="1041" y="331" />
            </Array>
          </mxGeometry>
        </mxCell>
        <mxCell id="label28" value="isinstanceof" style="edgeLabel;resizable=0;html=1;align=left;verticalAlign=top;strokeColor=default;" parent="edge4" vertex="1" connectable="0">
          <mxGeometry x="1113" y="311" as="geometry" />
        </mxCell>
        <mxCell id="edge21" value="" style="html=1;rounded=1;edgeStyle=orthogonalEdgeStyle;dashed=1;startArrow=none;endArrow=none;strokeColor=#595959;exitX=0.500;exitY=1.000;exitDx=0;exitDy=0;entryX=0.500;entryY=0.000;entryDx=0;entryDy=0;" parent="1" source="node10" target="node17" edge="1">
          <mxGeometry width="50" height="50" relative="1" as="geometry">
            <Array as="points" />
          </mxGeometry>
        </mxCell>
        <mxCell id="edge8" value="" style="html=1;rounded=1;edgeStyle=orthogonalEdgeStyle;dashed=0;startArrow=block;startSize=12;endArrow=none;strokeColor=#595959;exitX=0.500;exitY=0.000;exitDx=0;exitDy=0;entryX=0.500;entryY=1.000;entryDx=0;entryDy=0;" parent="1" source="node10" target="node3" edge="1">
          <mxGeometry width="50" height="50" relative="1" as="geometry">
            <Array as="points" />
          </mxGeometry>
        </mxCell>
        <mxCell id="edge0" value="" style="html=1;rounded=1;edgeStyle=orthogonalEdgeStyle;dashed=0;startArrow=block;startSize=12;endArrow=none;strokeColor=#595959;exitX=0.500;exitY=0.000;exitDx=0;exitDy=0;entryX=0.500;entryY=1.000;entryDx=0;entryDy=0;" parent="1" source="node10" target="node7" edge="1">
          <mxGeometry width="50" height="50" relative="1" as="geometry">
            <Array as="points">
              <mxPoint x="1257" y="522" />
              <mxPoint x="826" y="522" />
            </Array>
          </mxGeometry>
        </mxCell>
        <mxCell id="edge16" value="" style="html=1;rounded=1;edgeStyle=orthogonalEdgeStyle;dashed=0;startArrow=block;startSize=12;endArrow=none;strokeColor=#595959;exitX=0.500;exitY=0.000;exitDx=0;exitDy=0;entryX=0.500;entryY=1.001;entryDx=0;entryDy=0;" parent="1" source="node4" target="node0" edge="1">
          <mxGeometry width="50" height="50" relative="1" as="geometry">
            <Array as="points">
              <mxPoint x="1889" y="1008" />
              <mxPoint x="2071" y="1008" />
            </Array>
          </mxGeometry>
        </mxCell>
        <mxCell id="edge20" value="" style="html=1;rounded=1;edgeStyle=orthogonalEdgeStyle;dashed=1;startArrow=none;endArrow=none;strokeColor=#595959;exitX=0.500;exitY=1.000;exitDx=0;exitDy=0;entryX=0.500;entryY=0.000;entryDx=0;entryDy=0;" parent="1" source="node11" target="node16" edge="1">
          <mxGeometry width="50" height="50" relative="1" as="geometry">
            <Array as="points" />
          </mxGeometry>
        </mxCell>
        <mxCell id="edge9" value="" style="html=1;rounded=1;edgeStyle=orthogonalEdgeStyle;dashed=0;startArrow=block;startSize=12;endArrow=none;strokeColor=#595959;exitX=0.500;exitY=0.000;exitDx=0;exitDy=0;entryX=0.500;entryY=1.000;entryDx=0;entryDy=0;" parent="1" source="node11" target="node3" edge="1">
          <mxGeometry width="50" height="50" relative="1" as="geometry">
            <Array as="points">
              <mxPoint x="826" y="562" />
              <mxPoint x="1257" y="562" />
            </Array>
          </mxGeometry>
        </mxCell>
        <mxCell id="edge1" value="" style="html=1;rounded=1;edgeStyle=orthogonalEdgeStyle;dashed=0;startArrow=block;startSize=12;endArrow=none;strokeColor=#595959;exitX=0.500;exitY=0.000;exitDx=0;exitDy=0;entryX=0.500;entryY=1.000;entryDx=0;entryDy=0;" parent="1" source="node11" target="node7" edge="1">
          <mxGeometry width="50" height="50" relative="1" as="geometry">
            <Array as="points" />
          </mxGeometry>
        </mxCell>
        <mxCell id="edge10" value="" style="html=1;rounded=1;edgeStyle=orthogonalEdgeStyle;dashed=0;startArrow=block;startSize=12;endArrow=none;strokeColor=#595959;exitX=0.500;exitY=0.000;exitDx=0;exitDy=0;entryX=0.500;entryY=1.001;entryDx=0;entryDy=0;" parent="1" source="node12" target="node0" edge="1">
          <mxGeometry width="50" height="50" relative="1" as="geometry">
            <Array as="points">
              <mxPoint x="1503" y="1008" />
              <mxPoint x="2071" y="1008" />
            </Array>
          </mxGeometry>
        </mxCell>
        <mxCell id="edge14" value="" style="html=1;rounded=1;edgeStyle=orthogonalEdgeStyle;dashed=0;startArrow=block;startSize=12;endArrow=none;strokeColor=#595959;exitX=0.500;exitY=0.000;exitDx=0;exitDy=0;entryX=0.500;entryY=1.001;entryDx=0;entryDy=0;" parent="1" source="node2" target="node0" edge="1">
          <mxGeometry width="50" height="50" relative="1" as="geometry">
            <Array as="points">
              <mxPoint x="2252" y="1008" />
              <mxPoint x="2071" y="1008" />
            </Array>
          </mxGeometry>
        </mxCell>
        <mxCell id="edge17" value="" style="html=1;rounded=1;edgeStyle=orthogonalEdgeStyle;dashed=0;startArrow=block;startSize=12;endArrow=none;strokeColor=#595959;exitX=0.500;exitY=0.000;exitDx=0;exitDy=0;entryX=0.500;entryY=1.000;entryDx=0;entryDy=0;" parent="1" source="node9" target="node3" edge="1">
          <mxGeometry width="50" height="50" relative="1" as="geometry">
            <Array as="points">
              <mxPoint x="391" y="552" />
              <mxPoint x="1257" y="552" />
            </Array>
          </mxGeometry>
        </mxCell>
        <mxCell id="edge6" value="" style="html=1;rounded=1;edgeStyle=orthogonalEdgeStyle;dashed=0;startArrow=block;startSize=12;endArrow=none;strokeColor=#595959;exitX=0.500;exitY=0.000;exitDx=0;exitDy=0;entryX=0.500;entryY=1.000;entryDx=0;entryDy=0;" parent="1" source="node9" target="node7" edge="1">
          <mxGeometry width="50" height="50" relative="1" as="geometry">
            <Array as="points">
              <mxPoint x="391" y="542" />
              <mxPoint x="826" y="542" />
            </Array>
          </mxGeometry>
        </mxCell>
        <mxCell id="edge22" value="" style="html=1;rounded=1;edgeStyle=orthogonalEdgeStyle;dashed=1;startArrow=none;endArrow=none;strokeColor=#595959;exitX=0.505;exitY=1.000;exitDx=0;exitDy=0;entryX=0.500;entryY=0.000;entryDx=0;entryDy=0;" parent="1" source="node13" target="node18" edge="1">
          <mxGeometry width="50" height="50" relative="1" as="geometry">
            <Array as="points" />
          </mxGeometry>
        </mxCell>
        <mxCell id="edge15" value="" style="html=1;rounded=1;edgeStyle=orthogonalEdgeStyle;dashed=0;startArrow=block;startSize=12;endArrow=none;strokeColor=#595959;exitX=0.500;exitY=0.000;exitDx=0;exitDy=0;entryX=0.500;entryY=1.000;entryDx=0;entryDy=0;" parent="1" source="node13" target="node3" edge="1">
          <mxGeometry width="50" height="50" relative="1" as="geometry">
            <Array as="points">
              <mxPoint x="1689" y="502" />
              <mxPoint x="1257" y="502" />
            </Array>
          </mxGeometry>
        </mxCell>
        <mxCell id="edge7" value="" style="html=1;rounded=1;edgeStyle=orthogonalEdgeStyle;dashed=0;startArrow=block;startSize=12;endArrow=none;strokeColor=#595959;exitX=0.500;exitY=0.000;exitDx=0;exitDy=0;entryX=0.500;entryY=1.000;entryDx=0;entryDy=0;" parent="1" source="node13" target="node7" edge="1">
          <mxGeometry width="50" height="50" relative="1" as="geometry">
            <Array as="points">
              <mxPoint x="1689" y="512" />
              <mxPoint x="826" y="512" />
            </Array>
          </mxGeometry>
        </mxCell>
        <mxCell id="edge12" value="" style="html=1;rounded=1;edgeStyle=orthogonalEdgeStyle;dashed=0;startArrow=block;startSize=12;endArrow=none;strokeColor=#595959;exitX=0.500;exitY=0.000;exitDx=0;exitDy=0;entryX=0.500;entryY=1.001;entryDx=0;entryDy=0;" parent="1" source="node5" target="node0" edge="1">
          <mxGeometry width="50" height="50" relative="1" as="geometry">
            <Array as="points">
              <mxPoint x="2606" y="1008" />
              <mxPoint x="2071" y="1008" />
            </Array>
          </mxGeometry>
        </mxCell>
        <mxCell id="edge25" value="" style="html=1;rounded=1;edgeStyle=orthogonalEdgeStyle;dashed=1;startArrow=none;endArrow=none;strokeColor=#595959;exitX=0.500;exitY=0.000;exitDx=0;exitDy=0;entryX=0.500;entryY=1.000;entryDx=0;entryDy=0;" parent="1" source="node0" target="node21" edge="1">
          <mxGeometry width="50" height="50" relative="1" as="geometry">
            <Array as="points">
              <mxPoint x="2071" y="726" />
              <mxPoint x="2263" y="726" />
            </Array>
          </mxGeometry>
        </mxCell>
        <mxCell id="edge3" value="" style="html=1;rounded=1;edgeStyle=orthogonalEdgeStyle;dashed=0;startArrow=block;startSize=12;endArrow=none;strokeColor=#595959;exitX=0.500;exitY=0.000;exitDx=0;exitDy=0;entryX=0.500;entryY=1.001;entryDx=0;entryDy=0;" parent="1" source="node0" target="node6" edge="1">
          <mxGeometry width="50" height="50" relative="1" as="geometry">
            <Array as="points" />
          </mxGeometry>
        </mxCell>
        <mxCell id="edge5" value="" style="html=1;rounded=1;edgeStyle=orthogonalEdgeStyle;dashed=0;startArrow=block;startSize=12;endArrow=none;strokeColor=#595959;exitX=0.500;exitY=0.000;exitDx=0;exitDy=0;entryX=0.500;entryY=1.000;entryDx=0;entryDy=0;" parent="1" source="node1" target="node8" edge="1">
          <mxGeometry width="50" height="50" relative="1" as="geometry">
            <Array as="points" />
          </mxGeometry>
        </mxCell>
        <mxCell id="edge18" value="" style="html=1;rounded=1;edgeStyle=orthogonalEdgeStyle;dashed=1;startArrow=classic;startSize=12;endArrow=none;strokeColor=#595959;exitX=0.500;exitY=0.000;exitDx=0;exitDy=0;entryX=0.500;entryY=1.000;entryDx=0;entryDy=0;" parent="1" source="node7" target="node14" edge="1">
          <mxGeometry width="50" height="50" relative="1" as="geometry">
            <Array as="points">
              <mxPoint x="826" y="331" />
              <mxPoint x="1041" y="331" />
            </Array>
          </mxGeometry>
        </mxCell>
        <mxCell id="label112" value="isinstanceof" style="edgeLabel;resizable=0;html=1;align=left;verticalAlign=top;strokeColor=default;" parent="edge18" vertex="1" connectable="0">
          <mxGeometry x="790" y="311" as="geometry" />
        </mxCell>
      </root>
    </mxGraphModel>
  </diagram>
</mxfile>
